<?xml version="1.0" encoding="UTF-8" standalone="no"?>
<!-- Created with Inkscape (http://www.inkscape.org/) -->

<svg
   width="210mm"
   height="297mm"
   viewBox="0 0 744.09448819 1052.3622047"
   id="svg3376"
   version="1.1"
   inkscape:version="1.2.1 (9c6d41e410, 2022-07-14)"
   sodipodi:docname="ondamare6.svg"
   inkscape:export-filename="ondamare6.png"
   inkscape:export-xdpi="96"
   inkscape:export-ydpi="96"
   xmlns:inkscape="http://www.inkscape.org/namespaces/inkscape"
   xmlns:sodipodi="http://sodipodi.sourceforge.net/DTD/sodipodi-0.dtd"
   xmlns="http://www.w3.org/2000/svg"
   xmlns:svg="http://www.w3.org/2000/svg"
   xmlns:rdf="http://www.w3.org/1999/02/22-rdf-syntax-ns#"
   xmlns:cc="http://creativecommons.org/ns#"
   xmlns:dc="http://purl.org/dc/elements/1.1/">
  <defs
     id="defs3378" />
  <sodipodi:namedview
     id="base"
     pagecolor="#ffffff"
     bordercolor="#666666"
     borderopacity="1.0"
     inkscape:pageopacity="0.0"
     inkscape:pageshadow="2"
     inkscape:zoom="1.4"
     inkscape:cx="285"
     inkscape:cy="511.42857"
     inkscape:document-units="px"
     inkscape:current-layer="layer1"
     showgrid="false"
     inkscape:window-width="1920"
     inkscape:window-height="1017"
     inkscape:window-x="-8"
     inkscape:window-y="-8"
     inkscape:window-maximized="1"
     inkscape:showpageshadow="2"
     inkscape:pagecheckerboard="0"
     inkscape:deskcolor="#d1d1d1" />
  <metadata
     id="metadata3381">
    <rdf:RDF>
      <cc:Work
         rdf:about="">
        <dc:format>image/svg+xml</dc:format>
        <dc:type
           rdf:resource="http://purl.org/dc/dcmitype/StillImage" />
        <dc:title />
      </cc:Work>
    </rdf:RDF>
  </metadata>
  <g
     inkscape:label="Capa 1"
     inkscape:groupmode="layer"
     id="layer1">
    <path
       style="opacity:0.784;fill:none;fill-opacity:0.585227;fill-rule:nonzero;stroke:#1e8cf0;stroke-width:4;stroke-linecap:round;stroke-linejoin:miter;stroke-miterlimit:4;stroke-dasharray:none;stroke-dashoffset:0;stroke-opacity:1"
       id="path4144"
       sodipodi:type="arc"
       sodipodi:cx="348.12506"
       sodipodi:cy="412.444"
       sodipodi:rx="167.85844"
       sodipodi:ry="162.79013"
       sodipodi:start="4.5433713"
       sodipodi:end="4.5408302"
       d="M 319.8889,251.97355 A 167.85844,162.79013 0 0 1 513.57363,384.95847 167.85844,162.79013 0 0 1 376.57143,572.87953 167.85844,162.79013 0 0 1 182.71263,440.13338 167.85844,162.79013 0 0 1 319.46853,252.04365"
       sodipodi:open="true"
       sodipodi:arc-type="arc" />
    <text
       xml:space="preserve"
       style="font-style:normal;font-variant:normal;font-weight:bold;font-stretch:normal;font-size:12.1741px;line-height:0%;font-family:'Berlin Sans FB Demi';-inkscape-font-specification:'Berlin Sans FB Demi, Bold';text-align:start;letter-spacing:0px;word-spacing:0px;writing-mode:lr-tb;text-anchor:start;fill:#ffbf00;fill-opacity:1;stroke:none;stroke-width:1.01451px;stroke-linecap:butt;stroke-linejoin:miter;stroke-opacity:1"
       x="196.15024"
       y="664.33606"
       id="text4136"
       transform="scale(1.0112151,0.98890924)"><tspan
         sodipodi:role="line"
         id="tspan4138"
         x="196.15024"
         y="664.33606"
         style="font-size:362.079px;line-height:10;fill:#ffbf00;fill-opacity:1;stroke-width:1.01451px;stroke:none;stroke-opacity:1">M</tspan></text>
    <path
       style="opacity:0.784;fill:none;fill-opacity:0.585227;fill-rule:nonzero;stroke:#3764ec;stroke-width:4;stroke-linecap:round;stroke-linejoin:miter;stroke-miterlimit:4;stroke-dasharray:none;stroke-dashoffset:0;stroke-opacity:1"
       id="path4144-9"
       sodipodi:type="arc"
       sodipodi:cx="348.12506"
       sodipodi:cy="412.444"
       sodipodi:rx="133.96405"
       sodipodi:ry="131.34695"
       sodipodi:start="4.5433713"
       sodipodi:end="4.5408302"
       d="M 325.59042,282.96868 A 133.96405,131.34695 0 0 1 480.16585,390.26734 133.96405,131.34695 0 0 1 370.82747,541.89115 133.96405,131.34695 0 0 1 216.11312,434.78513 133.96405,131.34695 0 0 1 325.25493,283.02524"
       sodipodi:open="true"
       sodipodi:arc-type="arc" />
    <path
       style="opacity:0.784;fill:none;fill-opacity:0.585227;fill-rule:nonzero;stroke:#063fda;stroke-width:4;stroke-linecap:round;stroke-linejoin:miter;stroke-miterlimit:4;stroke-dasharray:none;stroke-dashoffset:0;stroke-opacity:1"
       id="path4144-9-3"
       sodipodi:type="arc"
       sodipodi:cx="348.12506"
       sodipodi:cy="412.444"
       sodipodi:rx="102.4906"
       sodipodi:ry="96.72979"
       sodipodi:start="4.5433713"
       sodipodi:end="4.5408302"
       d="M 330.8847,317.09256 A 102.4906,96.72979 0 0 1 449.14425,396.11211 102.4906,96.72979 0 0 1 365.49378,507.77469 102.4906,96.72979 0 0 1 247.12794,428.89701 102.4906,96.72979 0 0 1 330.62802,317.13422"
       sodipodi:open="true"
       sodipodi:arc-type="arc" />
    <path
       inkscape:connector-curvature="0"
       d="m 225.46865,693.51923 q 0,7.74111 -4.23662,12.70823 -4.23663,4.90273 -11.5845,4.90273 -6.88446,0 -11.25342,-4.45114 -4.70003,-4.83817 -4.70003,-13.09526 0,-7.9991 4.17047,-12.83727 4.23653,-4.83816 11.71682,-4.83816 7.61261,0 11.84923,4.9672 4.03805,4.7736 4.03805,12.64367 z m -4.23662,0.12948 q 0,-6.45083 -2.58168,-10.06336 -2.97882,-4.19306 -9.06898,-4.19306 -5.5605,0 -8.60558,3.87051 -3.04508,3.87052 -3.04508,10.25687 0,6.64443 3.11124,10.38599 3.11124,3.74148 8.60558,3.74148 5.75917,0 8.87041,-4.3221 2.71409,-3.80604 2.71409,-9.67633 z"
       style="font-style:normal;font-variant:normal;font-weight:100;font-stretch:normal;font-size:7.32386px;line-height:1000%;font-family:HelvLight;-inkscape-font-specification:'HelvLight, Thin';text-align:start;letter-spacing:0px;word-spacing:0px;writing-mode:lr-tb;text-anchor:start;fill:#000000;fill-opacity:1;stroke:none;stroke-width:1px;stroke-linecap:butt;stroke-linejoin:miter;stroke-opacity:1"
       id="path3357" />
    <path
       inkscape:connector-curvature="0"
       d="m 259.99962,710.22701 h -3.9718 v -21.93297 q 0,-8.90219 -8.738,-8.90219 -6.35489,0 -9.13514,5.35422 -1.39013,2.70936 -1.39013,6.64443 v 18.83651 h -3.97189 v -33.41556 h 3.97189 v 4.64465 q 2.64784,-2.77383 5.22951,-4.12859 2.64793,-1.41915 5.82533,-1.41915 2.71409,0 5.03093,0.77422 2.3831,0.70993 4.10422,2.45128 1.72111,1.67723 2.3831,3.677 0.66162,1.99978 0.66162,5.03168 v 22.38456 z"
       style="font-style:normal;font-variant:normal;font-weight:100;font-stretch:normal;font-size:7.32386px;line-height:1000%;font-family:HelvLight;-inkscape-font-specification:'HelvLight, Thin';text-align:start;letter-spacing:0px;word-spacing:0px;writing-mode:lr-tb;text-anchor:start;fill:#000000;fill-opacity:1;stroke:none;stroke-width:1px;stroke-linecap:butt;stroke-linejoin:miter;stroke-opacity:1"
       id="path3359" />
    <path
       inkscape:connector-curvature="0"
       d="m 300.09117,710.22701 h -3.9718 v -5.87029 q -1.72111,3.16094 -5.2296,4.9672 -3.44223,1.80627 -6.88446,1.80627 -7.28162,0 -11.25351,-4.38658 -4.17037,-4.58018 -4.17037,-13.09534 0,-7.35401 3.50848,-12.12761 4.10412,-5.6123 11.9154,-5.6123 3.83938,0 7.14929,1.80626 3.37598,1.7417 4.96477,4.45105 v -18.385 h 3.9718 z m -3.9718,-16.77226 q 0,-6.25731 -3.30991,-10.12791 -3.30981,-3.93499 -8.34075,-3.93499 -5.56059,0 -8.60558,3.93499 -3.04508,3.93507 -3.04508,10.45046 0,3.61253 0.86047,6.25732 0.92672,2.5804 2.91267,4.58018 1.45628,1.41915 3.37607,2.25776 1.91969,0.77422 4.36895,0.77422 5.89149,0 9.00282,-4.38657 2.78025,-3.87052 2.78025,-9.80537 z"
       style="font-style:normal;font-variant:normal;font-weight:100;font-stretch:normal;font-size:7.32386px;line-height:1000%;font-family:HelvLight;-inkscape-font-specification:'HelvLight, Thin';text-align:start;letter-spacing:0px;word-spacing:0px;writing-mode:lr-tb;text-anchor:start;fill:#000000;fill-opacity:1;stroke:none;stroke-width:1px;stroke-linecap:butt;stroke-linejoin:miter;stroke-opacity:1"
       id="path3361" />
    <path
       inkscape:connector-curvature="0"
       d="m 340.69159,710.09806 q -1.12538,0.38667 -1.72111,0.51615 -0.52966,0.1286 -1.39013,0.1286 -2.58167,0 -3.64081,-0.96756 -1.32396,-1.16117 -1.32396,-4.19307 -2.64793,2.90287 -6.22248,4.32202 -3.11133,1.22572 -6.55356,1.22572 -4.89852,0 -8.07602,-2.45136 -3.37607,-2.64488 -3.37607,-7.16049 0,-4.45105 3.37607,-7.03146 3.04508,-2.32232 8.60558,-3.0319 l 4.96477,-0.64475 q 1.45638,-0.19377 2.97892,-0.38667 2.51542,-0.38667 3.37598,-1.22572 0.86047,-0.83853 0.86047,-2.96734 0,-3.2255 -2.11827,-5.03168 -2.05211,-1.80626 -6.3549,-1.80626 -4.89861,0 -7.21545,1.80626 -2.31694,1.80618 -2.8465,5.74125 h -4.03797 q 0,-4.83816 3.44224,-7.80559 3.77322,-3.22541 10.65768,-3.22541 5.49434,0 8.60558,2.12881 3.83948,2.64488 3.83948,8.38613 v 18.06246 q 0,3.09646 1.78728,3.09646 0.99297,0 2.38309,-0.51615 v 3.03199 z m -8.14226,-12.19217 v -5.22527 q -2.91267,1.16116 -6.95063,1.54827 -7.41403,0.77423 -9.39997,1.7417 -3.57465,1.7417 -3.57465,5.6123 0,2.77383 2.11836,4.45106 2.18443,1.61275 5.49434,1.61275 4.83236,0 8.27459,-2.25785 4.03796,-2.64479 4.03796,-7.48296 z"
       style="font-style:normal;font-variant:normal;font-weight:100;font-stretch:normal;font-size:7.32386px;line-height:1000%;font-family:HelvLight;-inkscape-font-specification:'HelvLight, Thin';text-align:start;letter-spacing:0px;word-spacing:0px;writing-mode:lr-tb;text-anchor:start;fill:#000000;fill-opacity:1;stroke:none;stroke-width:1px;stroke-linecap:butt;stroke-linejoin:miter;stroke-opacity:1"
       id="path3363" />
    <path
       inkscape:connector-curvature="0"
       d="m 411.38886,710.22701 h -3.9718 V 687.0684 q 0,-3.87051 -1.72112,-5.74134 -1.65495,-1.93521 -5.56059,-1.93521 -2.78025,0 -5.09709,1.41915 -2.31694,1.35467 -3.44233,3.54805 -0.66162,1.29011 -1.12529,3.41893 -0.39679,2.06425 -0.39679,4.12859 v 18.32044 h -3.97189 V 687.0684 q 0,-4.06411 -1.85344,-5.87029 -1.78737,-1.80626 -5.29576,-1.80626 -3.1775,0 -5.62676,1.61266 -1.98594,1.2902 -2.97882,3.2255 -0.59564,1.22564 -1.12539,3.41893 -0.46368,2.12881 -0.46368,4.25763 v 18.32044 h -3.9718 v -33.41556 h 3.9718 v 5.09624 q 1.52254,-2.77392 4.36904,-4.38658 2.91267,-1.61275 6.55348,-1.61275 3.90564,0 6.22248,1.61275 2.3831,1.54819 3.64081,4.83816 1.58879,-3.16094 4.56762,-4.77369 3.04508,-1.67722 6.55347,-1.67722 5.42818,0 8.07601,3.0319 2.64793,2.96743 2.64793,9.80537 v 21.48138 z"
       style="font-style:normal;font-variant:normal;font-weight:100;font-stretch:normal;font-size:7.32386px;line-height:1000%;font-family:HelvLight;-inkscape-font-specification:'HelvLight, Thin';text-align:start;letter-spacing:0px;word-spacing:0px;writing-mode:lr-tb;text-anchor:start;fill:#000000;fill-opacity:1;stroke:none;stroke-width:1px;stroke-linecap:butt;stroke-linejoin:miter;stroke-opacity:1"
       id="path3365" />
    <path
       inkscape:connector-curvature="0"
       d="m 451.10595,710.09806 q -1.1253,0.38667 -1.72112,0.51615 -0.52966,0.1286 -1.39012,0.1286 -2.58168,0 -3.64081,-0.96756 -1.32397,-1.16117 -1.32397,-4.19307 -2.64783,2.90287 -6.22248,4.32202 -3.11124,1.22572 -6.55347,1.22572 -4.89861,0 -8.0761,-2.45136 -3.37598,-2.64488 -3.37598,-7.16049 0,-4.45105 3.37598,-7.03146 3.04507,-2.32232 8.60567,-3.0319 l 4.96477,-0.64475 q 1.45628,-0.19377 2.97882,-0.38667 2.51552,-0.38667 3.37607,-1.22572 0.86047,-0.83853 0.86047,-2.96734 0,-3.2255 -2.11836,-5.03168 -2.0521,-1.80626 -6.35489,-1.80626 -4.89852,0 -7.21546,1.80626 -2.31684,1.80618 -2.84641,5.74125 h -4.03805 q 0,-4.83816 3.44223,-7.80559 3.77322,-3.22541 10.65769,-3.22541 5.49433,0 8.60558,2.12881 3.83947,2.64488 3.83947,8.38613 v 18.06246 q 0,3.09646 1.78728,3.09646 0.99297,0 2.3831,-0.51615 v 3.03199 z m -8.14218,-12.19217 v -5.22527 q -2.91266,1.16116 -6.95071,1.54827 -7.41404,0.77423 -9.39998,1.7417 -3.57465,1.7417 -3.57465,5.6123 0,2.77383 2.11836,4.45106 2.18452,1.61275 5.49434,1.61275 4.83236,0 8.27459,-2.25785 4.03805,-2.64479 4.03805,-7.48296 z"
       style="font-style:normal;font-variant:normal;font-weight:100;font-stretch:normal;font-size:7.32386px;line-height:1000%;font-family:HelvLight;-inkscape-font-specification:'HelvLight, Thin';text-align:start;letter-spacing:0px;word-spacing:0px;writing-mode:lr-tb;text-anchor:start;fill:#000000;fill-opacity:1;stroke:none;stroke-width:1px;stroke-linecap:butt;stroke-linejoin:miter;stroke-opacity:1"
       id="path3367" />
    <path
       inkscape:connector-curvature="0"
       d="m 472.86095,680.10142 q -3.50848,0 -5.89149,1.16117 -2.31693,1.16116 -3.70706,3.80603 -1.72111,3.35446 -1.72111,8.45061 v 16.70778 h -3.9718 v -33.41556 h 3.9718 v 6.2574 q 1.72111,-4.19307 4.89851,-5.87029 2.44935,-1.2902 6.42115,-1.2902 z"
       style="font-style:normal;font-variant:normal;font-weight:100;font-stretch:normal;font-size:7.32386px;line-height:1000%;font-family:HelvLight;-inkscape-font-specification:'HelvLight, Thin';text-align:start;letter-spacing:0px;word-spacing:0px;writing-mode:lr-tb;text-anchor:start;fill:#000000;fill-opacity:1;stroke:none;stroke-width:1px;stroke-linecap:butt;stroke-linejoin:miter;stroke-opacity:1"
       id="path3369" />
    <path
       inkscape:connector-curvature="0"
       d="m 507.44109,694.4224 h -26.61114 q 0,5.99933 3.11124,9.61177 3.11124,3.61253 8.47317,3.61253 3.6409,0 6.35489,-1.80627 3.04508,-2.06425 3.97189,-5.87029 h 4.43512 q -1.5887,5.16072 -4.76611,7.87007 -3.77322,3.28998 -9.92954,3.28998 -8.34084,0 -12.44506,-5.41879 -3.44223,-4.58009 -3.44223,-11.9341 0,-7.61208 4.10422,-12.57919 4.36895,-5.28975 11.65065,-5.28975 7.48029,0 11.38583,5.09615 3.70707,4.83816 3.70707,13.41789 z m -4.23663,-3.2255 q 0,-4.96711 -2.51542,-8.12805 -2.91267,-3.677 -8.34085,-3.677 -4.4352,0 -7.41403,2.83839 -3.3099,3.09637 -4.10421,8.96666 z"
       style="font-style:normal;font-variant:normal;font-weight:100;font-stretch:normal;font-size:7.32386px;line-height:1000%;font-family:HelvLight;-inkscape-font-specification:'HelvLight, Thin';text-align:start;letter-spacing:0px;word-spacing:0px;writing-mode:lr-tb;text-anchor:start;fill:#000000;fill-opacity:1;stroke:none;stroke-width:1px;stroke-linecap:butt;stroke-linejoin:miter;stroke-opacity:1"
       id="path3371" />
    <text
       id="text3362"
       y="736.4693"
       x="283.34821"
       style="font-style:normal;font-weight:normal;line-height:0%;font-family:sans-serif;letter-spacing:0px;word-spacing:0px;fill:#ff6600;fill-opacity:1;stroke:none;stroke-width:1px;stroke-linecap:butt;stroke-linejoin:miter;stroke-opacity:1"
       xml:space="preserve"><tspan
         style="font-style:normal;font-variant:normal;font-weight:300;font-stretch:normal;font-size:25px;line-height:1000%;font-family:Moon;-inkscape-font-specification:'Moon, Light';text-align:start;letter-spacing:12.5;writing-mode:lr-tb;text-anchor:start;fill:#ff6600"
         y="736.4693"
         x="283.34821"
         id="tspan3364"
         sodipodi:role="line">RADIO</tspan></text>
  </g>
</svg>
